<svg width="26" height="26" viewBox="0 0 26 26" fill="none" xmlns="http://www.w3.org/2000/svg">
<path d="M0.5 4.25L9.25 0.5L16.75 4.25L24.6287 0.87375C24.7239 0.83298 24.8276 0.816461 24.9307 0.825678C25.0337 0.834895 25.1329 0.869558 25.2193 0.926556C25.3056 0.983555 25.3765 1.06111 25.4255 1.15225C25.4745 1.24339 25.5001 1.34527 25.5 1.44875V21.75L16.75 25.5L9.25 21.75L1.37125 25.1263C1.27614 25.167 1.1724 25.1835 1.06933 25.1743C0.966265 25.1651 0.867099 25.1304 0.780734 25.0734C0.694369 25.0164 0.623507 24.9389 0.574509 24.8478C0.52551 24.7566 0.499908 24.6547 0.5 24.5512V4.25ZM18 22.2438L23 20.1012V4.29125L18 6.43375V22.2438ZM15.5 22.08V6.42L10.5 3.92V19.58L15.5 22.08ZM8 19.5662V3.75625L3 5.89875V21.7087L8 19.5662Z" fill="#303536"/>
</svg>
