<svg width="12" height="13" viewBox="0 0 12 13" fill="none" xmlns="http://www.w3.org/2000/svg">
<path d="M2.5 4.66634V4.08301C2.5 3.15475 2.86875 2.26451 3.52513 1.60813C4.1815 0.951757 5.07174 0.583008 6 0.583008C6.92826 0.583008 7.8185 0.951757 8.47487 1.60813C9.13125 2.26451 9.5 3.15475 9.5 4.08301V4.66634H10.6667C10.8214 4.66634 10.9697 4.7278 11.0791 4.8372C11.1885 4.94659 11.25 5.09496 11.25 5.24967V12.2497C11.25 12.4044 11.1885 12.5528 11.0791 12.6622C10.9697 12.7716 10.8214 12.833 10.6667 12.833H1.33333C1.17862 12.833 1.03025 12.7716 0.920854 12.6622C0.811458 12.5528 0.75 12.4044 0.75 12.2497V5.24967C0.75 5.09496 0.811458 4.94659 0.920854 4.8372C1.03025 4.7278 1.17862 4.66634 1.33333 4.66634H2.5ZM10.0833 5.83301H1.91667V11.6663H10.0833V5.83301ZM5.41667 9.17667C5.19425 9.04826 5.02042 8.85005 4.92214 8.61278C4.82386 8.3755 4.80662 8.11243 4.87309 7.86436C4.93956 7.61628 5.08603 7.39708 5.28978 7.24073C5.49353 7.08439 5.74318 6.99965 6 6.99965C6.25682 6.99965 6.50647 7.08439 6.71022 7.24073C6.91397 7.39708 7.06044 7.61628 7.12691 7.86436C7.19338 8.11243 7.17614 8.3755 7.07786 8.61278C6.97958 8.85005 6.80575 9.04826 6.58333 9.17667V10.4997H5.41667V9.17667ZM3.66667 4.66634H8.33333V4.08301C8.33333 3.46417 8.0875 2.87068 7.64992 2.43309C7.21233 1.99551 6.61884 1.74967 6 1.74967C5.38116 1.74967 4.78767 1.99551 4.35008 2.43309C3.9125 2.87068 3.66667 3.46417 3.66667 4.08301V4.66634Z" fill="#E8E9E8"/>
</svg>
