<svg width="48" height="48" viewBox="0 0 48 48" fill="none" xmlns="http://www.w3.org/2000/svg">
<path d="M0 2.648C0 1.18667 1.18667 0 2.648 0H45.352C46.8133 0 48 1.18667 48 2.648V45.352C47.9993 46.0541 47.7201 46.7272 47.2236 47.2236C46.7272 47.7201 46.0541 47.9993 45.352 48H2.648C1.94592 47.9993 1.2728 47.7201 0.776361 47.2236C0.279917 46.7272 0.00070596 46.0541 0 45.352V2.648ZM20.3253 14.44C20.1648 14.3329 19.9783 14.2714 19.7856 14.2619C19.5929 14.2525 19.4013 14.2954 19.2311 14.3863C19.0609 14.4771 18.9185 14.6125 18.8191 14.7778C18.7197 14.9432 18.667 15.1324 18.6667 15.3253V32.6747C18.667 32.8676 18.7197 33.0568 18.8191 33.2222C18.9185 33.3875 19.0609 33.5229 19.2311 33.6137C19.4013 33.7046 19.5929 33.7475 19.7856 33.7381C19.9783 33.7286 20.1648 33.6671 20.3253 33.56L33.336 24.888C33.4823 24.7906 33.6023 24.6586 33.6853 24.5037C33.7683 24.3488 33.8117 24.1758 33.8117 24C33.8117 23.8243 33.7683 23.6512 33.6853 23.4963C33.6023 23.3414 33.4823 23.2094 33.336 23.112L20.3227 14.44H20.3253Z" fill="black"/>
</svg>
